Run_40002
nRows=4
nColumns=173

# SIMM Motion File Header:
name Run_40002
datacolumns 173
datarows 4
otherdata 1
range 0.01000000 0.04000000
endheader
time	pelvis_tilt	pelvis_list	pelvis_rotation	pelvis_tx	pelvis_ty	pelvis_tz	hip_flexion_r	hip_adduction_r	hip_rotation_r	knee_angle_r	ankle_angle_r	hip_flexion_l	hip_adduction_l	hip_rotation_l	knee_angle_l	ankle_angle_l	lumbar_extension	lumbar_bending	lumbar_rotation	arm_flex_r	arm_add_r	arm_rot_r	elbow_flex_r	pro_sup_r	arm_flex_l	arm_add_l	arm_rot_l	elbow_flex_l	pro_sup_l	subtalar_angle_r	mtp_angle_r	subtalar_angle_l	mtp_angle_l	wrist_flex_r	wrist_dev_r	wrist_flex_l	wrist_dev_l	LASI_tx	LASI_ty	LASI_tz	RASI_tx	RASI_ty	RASI_tz	LPSI_tx	LPSI_ty	LPSI_tz	RPSI_tx	RPSI_ty	RPSI_tz	RTH1_tx	RTH1_ty	RTH1_tz	RTH2_tx	RTH2_ty	RTH2_tz	RTH3_tx	RTH3_ty	RTH3_tz	LTH1_tx	LTH1_ty	LTH1_tz	LTH2_tx	LTH2_ty	LTH2_tz	LTH3_tx	LTH3_ty	LTH3_tz	RTB1_tx	RTB1_ty	RTB1_tz	RTB2_tx	RTB2_ty	RTB2_tz	RTB3_tx	RTB3_ty	RTB3_tz	RLMAL_tx	RLMAL_ty	RLMAL_tz	RMMAL_tx	RMMAL_ty	RMMAL_tz	LTB1_tx	LTB1_ty	LTB1_tz	LTB2_tx	LTB2_ty	LTB2_tz	LTB3_tx	LTB3_ty	LTB3_tz	RCAL_tx	RCAL_ty	RCAL_tz	RTOE_tx	RTOE_ty	RTOE_tz	RMT5_tx	RMT5_ty	RMT5_tz	LCAL_tx	LCAL_ty	LCAL_tz	LTOE_tx	LTOE_ty	LTOE_tz	LMT5_tx	LMT5_ty	LMT5_tz	LACR_tx	LACR_ty	LACR_tz	RACR_tx	RACR_ty	RACR_tz	CLAV_tx	CLAV_ty	CLAV_tz	C7_tx	C7_ty	C7_tz	LPSH_tx	LPSH_ty	LPSH_tz	RUA1_tx	RUA1_ty	RUA1_tz	RUA2_tx	RUA2_ty	RUA2_tz	RUA3_tx	RUA3_ty	RUA3_tz	RLEL_tx	RLEL_ty	RLEL_tz	RMEL_tx	RMEL_ty	RMEL_tz	LUA1_tx	LUA1_ty	LUA1_tz	LUA2_tx	LUA2_ty	LUA2_tz	LUA3_tx	LUA3_ty	LUA3_tz	LLEL_tx	LLEL_ty	LLEL_tz	LMEL_tx	LMEL_ty	LMEL_tz	RFAsuperior_tx	RFAsuperior_ty	RFAsuperior_tz	RFAradius_tx	RFAradius_ty	RFAradius_tz	RFAulna_tx	RFAulna_ty	RFAulna_tz	LFAsuperior_tx	LFAsuperior_ty	LFAsuperior_tz	LFAradius_tx	LFAradius_ty	LFAradius_tz	LFAulna_tx	LFAulna_ty	LFAulna_tz
      0.01000000	     -7.88048423	     -3.56853434	     -1.88333195	      0.94469942	      1.04896308	     -0.32425670	     44.38247498	      7.97311064	      3.40753834	    -40.52571870	     -0.92729314	    -17.33746363	      4.04611969	     -0.37888902	    -21.65431111	    -22.72253354	      4.06793336	      5.83003955	    -12.24357464	    -42.90136461	    -13.25180376	    -13.20145338	    119.20814487	     89.83375976	    -13.02481214	    -11.30649742	      8.74129800	    143.25867379	     95.78966645	      0.00000000	      0.00000000	      0.00000000	      0.00000000	      0.00000000	      0.00000000	      0.00000000	      0.00000000	      0.95682445	      1.07939536	     -0.43782648	      0.95499488	      1.09715037	     -0.20680360	      0.79751036	      1.13519688	     -0.37388316	      0.79415028	      1.13344712	     -0.28470805	      0.95310162	      0.85667162	     -0.16489411	      1.05807880	      0.84281082	     -0.17553925	      1.04956682	      0.72299131	     -0.19115071	      0.77812036	      0.89205515	     -0.48176536	      0.80024911	      0.76263524	     -0.46442137	      0.70808910	      0.69504595	     -0.44857633	      1.15679100	      0.50453147	     -0.22816573	      1.11199248	      0.44871908	     -0.18653080	      1.12983178	      0.32237279	     -0.23368333	      1.08667086	      0.20602000	     -0.22094673	      1.11342276	      0.23103759	     -0.29832760	      0.60917516	      0.47511040	     -0.40233068	      0.47584656	      0.46149229	     -0.40818819	      0.46372319	      0.35045758	     -0.36532321	      1.03165289	      0.18828666	     -0.29067363	      1.25001451	      0.15131366	     -0.25288214	      1.17546033	      0.12787421	     -0.19047575	      0.31211390	      0.34182686	     -0.30026223	      0.38652649	      0.12918599	     -0.30427019	      0.32484453	      0.16246632	     -0.36183193	      0.92183515	      1.60652920	     -0.46921503	      0.86369974	      1.57403523	     -0.16786342	      0.96668764	      1.52216116	     -0.28260391	      0.85892250	      1.60535157	     -0.32354489	      0.84923301	      1.55968919	     -0.50109773	      0.75609150	      1.46455861	     -0.10090728	      0.67957915	      1.44088961	     -0.15065295	      0.64598415	      1.39751036	     -0.10623252	      0.62297790	      1.33405565	     -0.07478900	      0.62111702	      1.31983247	     -0.16613201	      0.88443331	      1.46956075	     -0.55632866	      0.83260745	      1.38245410	     -0.55441939	      0.87535979	      1.33894114	     -0.59757758	      0.90124185	      1.26152755	     -0.60729482	      0.83690791	      1.24830911	     -0.53580738	      0.66696957	      1.26903678	     -0.07899326	      0.86463109	      1.25680016	     -0.10034200	      0.84288683	      1.19348872	     -0.09064201	      0.95624149	      1.26085558	     -0.52601900	      1.01299137	      1.39818801	     -0.43248305	      1.05106428	      1.34262574	     -0.41967846
      0.02000000	     -7.19729059	     -3.38819525	     -1.71156839	      0.94638025	      1.05176494	     -0.32592257	     41.13050174	      7.64483942	      3.88049133	    -32.42212355	     -1.98872868	    -17.79921557	      4.51285506	      0.76044318	    -25.80599457	    -21.49539257	      3.37564645	      5.90691360	    -12.53887888	    -42.99550174	    -12.37752259	    -14.13672983	    119.67818082	     89.76128390	    -13.27657781	    -11.70703693	      9.15056859	    143.05241409	     95.70835680	      0.00000000	      0.00000000	      0.00000000	      0.00000000	      0.00000000	      0.00000000	      0.00000000	      0.00000000	      0.95736423	      1.08286558	     -0.43958589	      0.95595838	      1.09804490	     -0.20889367	      0.79782253	      1.13656513	     -0.37509297	      0.79497221	      1.13408151	     -0.28611276	      0.95007858	      0.85491058	     -0.16529349	      1.05461425	      0.83574940	     -0.17570814	      1.04064015	      0.71588897	     -0.18909124	      0.78305128	      0.89195148	     -0.48368125	      0.80517079	      0.76354336	     -0.46372986	      0.71330064	      0.69549034	     -0.44963370	      1.15615811	      0.49814729	     -0.22912222	      1.11632614	      0.43842582	     -0.18871202	      1.14656498	      0.31524950	     -0.23681225	      1.11452282	      0.19534908	     -0.22460745	      1.13774882	      0.22391233	     -0.30190286	      0.60664742	      0.48019174	     -0.40373561	      0.47212194	      0.47671607	     -0.40908511	      0.45195896	      0.36703185	     -0.36738472	      1.05962450	      0.17514410	     -0.29300136	      1.28114538	      0.15534115	     -0.26260510	      1.21080328	      0.12344926	     -0.19817471	      0.29791878	      0.36758416	     -0.30338069	      0.36256942	      0.15195328	     -0.30498082	      0.30344380	      0.18740468	     -0.36388843	      0.92303065	      1.60967576	     -0.46790345	      0.86382907	      1.57533100	     -0.16705447	      0.96670384	      1.52403964	     -0.28177790	      0.85958041	      1.60760636	     -0.32243586	      0.85076715	      1.56256499	     -0.50013655	      0.75530664	      1.46580908	     -0.10199371	      0.67968347	      1.44195388	     -0.15433204	      0.64517805	      1.39828318	     -0.11116437	      0.62146909	      1.33475575	     -0.08028702	      0.62201466	      1.32050155	     -0.17173783	      0.88586886	      1.47351255	     -0.55586170	      0.83388996	      1.38666879	     -0.55568062	      0.87709742	      1.34363828	     -0.59907785	      0.90240757	      1.26602607	     -0.60946744	      0.83718597	      1.25247865	     -0.53891686	      0.66605186	      1.26978321	     -0.08355289	      0.86453457	      1.25945293	     -0.10008375	      0.84278401	      1.19606263	     -0.09123914	      0.95656740	      1.26372845	     -0.52761710	      1.01380495	      1.39918358	     -0.43121073	      1.05081661	      1.34287025	     -0.41896071
      0.03000000	     -6.31405536	     -3.24038459	     -1.51011673	      0.94810445	      1.05396252	     -0.32730338	     37.49513815	      7.42236674	      4.75515461	    -24.50138677	     -3.52154867	    -18.26269691	      4.87610893	      1.46668060	    -30.26979110	    -20.47934826	      2.41034599	      5.99901067	    -12.79486125	    -42.96742964	    -11.48018251	    -15.02372339	    120.04094077	     89.70309819	    -13.62964358	    -12.17852003	      9.27362358	    142.73445543	     95.57479336	      0.00000000	      0.00000000	      0.00000000	      0.00000000	      0.00000000	      0.00000000	      0.00000000	      0.00000000	      0.95778857	      1.08557199	     -0.44115909	      0.95670319	      1.09872724	     -0.21036694	      0.79784388	      1.13698072	     -0.37624930	      0.79548005	      1.13403198	     -0.28734188	      0.94752559	      0.85262086	     -0.16509131	      1.05055521	      0.82795219	     -0.17590660	      1.03117386	      0.70836585	     -0.18792367	      0.78785842	      0.89121818	     -0.48501447	      0.81032762	      0.76355876	     -0.46339219	      0.71906575	      0.69471129	     -0.45010600	      1.15434289	      0.49197228	     -0.23085355	      1.11941800	      0.42913221	     -0.19112285	      1.16019010	      0.30927880	     -0.24056710	      1.13794171	      0.18672229	     -0.22876565	      1.15828694	      0.21810979	     -0.30585911	      0.60581766	      0.48418281	     -0.40482489	      0.47074816	      0.49135034	     -0.40987915	      0.44234201	      0.38336989	     -0.36964748	      1.08338566	      0.16415189	     -0.29606642	      1.30683813	      0.15974103	     -0.27201259	      1.24060712	      0.12068239	     -0.20603916	      0.28662854	      0.39359306	     -0.30655411	      0.34025781	      0.17507351	     -0.30730726	      0.28371079	      0.21322615	     -0.36690749	      0.92450863	      1.61205402	     -0.46653507	      0.86444896	      1.57595014	     -0.16611038	      0.96683518	      1.52504738	     -0.28094262	      0.86030509	      1.60918495	     -0.32132553	      0.85236149	      1.56510807	     -0.49912617	      0.75505616	      1.46604496	     -0.10304109	      0.68028287	      1.44226164	     -0.15754789	      0.64503840	      1.39816720	     -0.11560470	      0.62075411	      1.33448196	     -0.08533137	      0.62365027	      1.32017323	     -0.17701236	      0.88712301	      1.47694655	     -0.55546585	      0.83471547	      1.39048660	     -0.55682370	      0.87807373	      1.34786699	     -0.60059763	      0.90267559	      1.27008710	     -0.61191667	      0.83695561	      1.25613593	     -0.54204442	      0.66580076	      1.26954858	     -0.08756336	      0.86498925	      1.26075140	     -0.09960007	      0.84315604	      1.19725745	     -0.09160729	      0.95642493	      1.26558161	     -0.52981062	      1.01514252	      1.39854620	     -0.43043352	      1.05106556	      1.34123516	     -0.41918800
      0.04000000	     -5.34407700	     -3.15382864	     -1.36090601	      0.94948034	      1.05514494	     -0.32822760	     33.98135410	      7.33283954	      5.58960587	    -17.75737085	     -4.93772938	    -18.35898206	      5.06494314	      1.58317001	    -35.42708379	    -19.51236113	      1.24342456	      6.14373190	    -12.90814942	    -42.71758621	    -10.60526423	    -15.79655914	    120.18425363	     89.62288539	    -14.12199039	    -12.72084822	      8.99542648	    142.17972123	     95.50005606	      0.00000000	      0.00000000	      0.00000000	      0.00000000	      0.00000000	      0.00000000	      0.00000000	      0.00000000	      0.95803143	      1.08698390	     -0.44246484	      0.95718833	      1.09908986	     -0.21118538	      0.79743329	      1.13594926	     -0.37733570	      0.79556034	      1.13284995	     -0.28839972	      0.94522516	      0.84953842	     -0.16385948	      1.04562877	      0.81913366	     -0.17616283	      1.02144361	      0.70051536	     -0.18783718	      0.79225768	      0.88936343	     -0.48544069	      0.81581580	      0.76209119	     -0.46352989	      0.72570891	      0.69200065	     -0.44987828	      1.15085899	      0.48625069	     -0.23332047	      1.12035008	      0.42133353	     -0.19378609	      1.16888992	      0.30477985	     -0.24492476	      1.15423830	      0.18067130	     -0.23370048	      1.17262875	      0.21406409	     -0.31039728	      0.60763225	      0.48644602	     -0.40551778	      0.47306855	      0.50480723	     -0.41053980	      0.43623797	      0.39910104	     -0.37213033	      1.10035436	      0.15625313	     -0.30050947	      1.32416190	      0.16386396	     -0.28073306	      1.26148716	      0.11952866	     -0.21402972	      0.28013274	      0.41975430	     -0.30976869	      0.32074308	      0.19861577	     -0.31181461	      0.26700033	      0.24029077	     -0.37132801	      0.92636002	      1.61317030	     -0.46512385	      0.86573144	      1.57550845	     -0.16499210	      0.96711971	      1.52467544	     -0.28015523	      0.86107112	      1.60962096	     -0.32022529	      0.85401308	      1.56704662	     -0.49801700	      0.75559222	      1.46477240	     -0.10389459	      0.68154488	      1.44134602	     -0.15996392	      0.64585867	      1.39662440	     -0.11920394	      0.62123394	      1.33265300	     -0.08958581	      0.62618798	      1.31844468	     -0.18142639	      0.88806746	      1.47957835	     -0.55516632	      0.83483743	      1.39369154	     -0.55780605	      0.87790811	      1.35135520	     -0.60216002	      0.90156985	      1.27345653	     -0.61475955	      0.83590935	      1.25903881	     -0.54520883	      0.66655221	      1.26775984	     -0.09073004	      0.86628305	      1.25998846	     -0.09881199	      0.84433329	      1.19642605	     -0.09166753	      0.95551886	      1.26588497	     -0.53289612	      1.01717679	      1.39538469	     -0.43037908	      1.05197081	      1.33680807	     -0.42086187
